<svg width="300" height="226" viewBox="0 0 300 226" fill="none" xmlns="http://www.w3.org/2000/svg">
<path d="M243.984 138.302C239.503 140.711 235.022 143.12 230.121 145.755C240.039 152.09 249.648 158.235 259.267 164.367C269.799 171.08 280.604 177.392 288.69 187.301C295.563 195.723 299.908 205.075 300 216.054C300.014 217.77 298.996 219.826 297.819 221.165C291.905 227.893 282.208 226.724 278.179 218.873C274.322 211.355 267.915 206.215 261.513 201.198C243.887 187.383 225.092 175.312 205.327 164.786C193.022 158.233 184.405 156.634 172.809 158.615C173.252 166.494 173.494 174.491 174.229 182.442C174.675 187.265 175.528 192.122 176.891 196.76C177.662 199.383 179.294 202.497 181.485 203.805C186.316 206.689 185.032 210.909 184.337 214.506C183.115 220.831 176.694 225.272 170.092 225.421C164.409 225.549 159.2 224.3 154.52 220.846C148.481 216.39 147.163 209.811 146.616 203.111C145.309 187.101 144.371 171.06 143.271 155.032C143.254 154.788 143.068 154.556 143.21 154.872C137.714 152.772 132.621 150.827 127.215 148.762C124.863 155.425 122.672 162.78 119.684 169.795C116.248 177.861 112.595 185.912 108.172 193.463C98.6216 209.768 86.4431 207.053 75.5349 195.437C66.0542 185.341 61.3163 172.511 56.6495 159.831C46.3974 131.973 37.8911 103.565 30.8342 74.7271C30.7552 74.4044 30.3428 74.1633 29.7415 73.5093C29.4626 74.7694 29.0876 75.6913 29.0788 76.6166C28.8321 102.707 28.5171 128.798 28.4769 154.888C28.4662 161.854 28.8851 168.885 29.9014 175.769C30.7555 181.555 32.7424 187.176 34.2723 192.858C35.0243 195.651 36.1882 198.369 36.6241 201.205C37.7889 208.779 34.5764 212.981 27.0496 214.216C14.9232 216.204 8.22194 212.764 4.94198 200.81C2.35623 191.385 0.246027 181.437 0.336469 171.744C0.621672 141.179 2.02151 110.624 3.03158 80.0667C3.55856 64.1241 4.26568 48.1866 4.64504 32.2409C4.70041 29.9132 3.839 27.274 2.61356 25.2582C-1.62168 18.2911 -0.917717 11.2125 6.25844 7.32605C17.3546 1.31665 29.1807 -1.20851 41.1196 5.67217C45.1716 8.00744 47.831 10.7552 48.428 16.2434C50.3757 34.1489 52.4675 52.1086 55.9539 69.7611C61.7742 99.2311 68.1457 128.655 80.2926 156.366C82.1019 160.494 84.8513 164.382 87.8613 167.761C90.7195 170.97 93.043 170.533 94.8729 166.627C97.8721 160.226 101.111 153.773 102.87 146.985C108.53 125.141 113.662 103.159 118.8 81.1836C123.464 61.2364 127.635 41.172 132.465 21.2664C135.991 6.73103 146.6 -0.783224 161.577 0.0646537C167.341 0.390941 173.148 0.977869 178.778 2.18177C181.384 2.73918 183.511 5.27097 186.049 6.51078C187.975 7.45197 190.195 8.22485 192.307 8.28673C210.866 8.83044 228.994 11.3316 245.98 19.4008C260.027 26.074 272.362 34.7118 279.66 49.0496C291.372 72.0612 286.419 103.081 267.602 120.765C261.499 126.5 254.158 130.918 246.943 136.225C245.664 137.108 244.824 137.705 243.984 138.302ZM179.128 67.4411C174.829 85.5991 174.414 104.164 173.467 122.665C173.418 123.613 174.668 125.156 175.654 125.536C179.571 127.044 183.636 128.162 187.622 129.494C193.747 131.542 199.899 131.358 205.744 128.896C214.065 125.393 222.665 122.193 230.294 117.485C244.111 108.956 253.831 97.0627 256.123 80.2298C257.868 67.4109 254.167 56.5799 243.69 48.9479C225.737 35.8704 205.239 33.8465 184.324 36.1159C182.588 46.6481 180.927 56.7198 179.128 67.4411ZM143.398 120.788C144.031 108.005 144.663 95.2214 145.296 82.438C144.915 82.3929 144.534 82.3477 144.154 82.3026C140.51 96.5148 136.866 110.727 133.033 125.678C136.897 124.079 140.087 122.759 143.398 120.788Z" fill="#FBFADA"/>
</svg>
