<svg width="300" height="300" viewBox="0 0 300 300" fill="none" xmlns="http://www.w3.org/2000/svg">
<path d="M149.53 80.5318C111.363 80.5318 80.5772 111.324 80.5772 149.5C80.5772 187.676 111.363 218.468 149.53 218.468C187.697 218.468 218.483 187.676 218.483 149.5C218.483 111.324 187.697 80.5318 149.53 80.5318ZM149.53 194.338C124.865 194.338 104.702 174.23 104.702 149.5C104.702 124.77 124.805 104.662 149.53 104.662C174.255 104.662 194.358 124.77 194.358 149.5C194.358 174.23 174.195 194.338 149.53 194.338ZM237.386 77.7106C237.386 86.6543 230.185 93.7972 221.303 93.7972C212.362 93.7972 205.22 86.5943 205.22 77.7106C205.22 68.827 212.422 61.6241 221.303 61.6241C230.185 61.6241 237.386 68.827 237.386 77.7106ZM283.055 94.0373C282.035 72.4885 277.114 53.4007 261.331 37.6743C245.608 21.9478 226.524 17.0258 204.98 15.9454C182.776 14.6849 116.224 14.6849 94.0197 15.9454C72.5357 16.9658 53.4521 21.8878 37.6692 37.6142C21.8863 53.3407 17.0254 72.4285 15.9452 93.9773C14.6849 116.186 14.6849 182.754 15.9452 204.963C16.9654 226.511 21.8863 245.599 37.6692 261.326C53.4521 277.052 72.4757 281.974 94.0197 283.055C116.224 284.315 182.776 284.315 204.98 283.055C226.524 282.034 245.608 277.112 261.331 261.326C277.054 245.599 281.975 226.511 283.055 204.963C284.315 182.754 284.315 116.246 283.055 94.0373ZM254.369 228.792C249.689 240.557 240.627 249.621 228.805 254.363C211.101 261.386 169.094 259.765 149.53 259.765C129.966 259.765 87.8985 261.326 70.2553 254.363C58.4931 249.681 49.4314 240.617 44.6905 228.792C37.6692 211.085 39.2895 169.068 39.2895 149.5C39.2895 129.932 37.7292 87.8548 44.6905 70.2076C49.3714 58.4428 58.4331 49.3791 70.2553 44.6371C87.9586 37.6142 129.966 39.2349 149.53 39.2349C169.094 39.2349 211.161 37.6743 228.805 44.6371C240.567 49.319 249.629 58.3827 254.369 70.2076C261.391 87.9148 259.77 129.932 259.77 149.5C259.77 169.068 261.391 211.145 254.369 228.792Z" fill="#FBFADA"/>
</svg>
